<?xml version="1.0" standalone="no"?>
<!DOCTYPE svg PUBLIC "-//W3C//DTD SVG 20010904//EN"
 "http://www.w3.org/TR/2001/REC-SVG-20010904/DTD/svg10.dtd">
<svg version="1.0" xmlns="http://www.w3.org/2000/svg"
 width="64.000000pt" height="64.000000pt" viewBox="0 0 64.000000 64.000000"
 preserveAspectRatio="xMidYMid meet">

<g transform="translate(0.000000,64.000000) scale(0.100000,-0.100000)"
fill="#000000" stroke="none">
<path d="M423 530 c-66 -14 -138 -49 -174 -86 -18 -19 -42 -34 -53 -34 -28 0
-82 -34 -96 -60 -6 -12 -10 -33 -8 -48 3 -23 8 -27 38 -28 29 0 45 -10 91 -56
47 -47 55 -60 52 -85 -6 -41 13 -54 57 -39 37 12 80 65 80 99 0 11 17 39 39
62 43 46 75 123 86 203 11 81 -7 92 -112 72z m-5 -141 c6 -49 -58 -65 -73 -18
-9 27 13 51 44 47 20 -2 27 -9 29 -29z"/>
<path d="M132 185 c-27 -59 -6 -80 53 -53 29 13 28 33 -1 33 -12 0 -19 7 -19
19 0 29 -20 30 -33 1z"/>
</g>
</svg>
